<svg xmlns="http://www.w3.org/2000/svg" version="1.1" xmlns:xlink="http://www.w3.org/1999/xlink" xmlns:svgjs="http://svgjs.dev/svgjs" width="2000" height="494" viewBox="0 0 2000 494"><g transform="matrix(1,0,0,1,-1.2121212121212466,0.42459470952348966)"><svg viewBox="0 0 396 98" data-background-color="#ffffff" preserveAspectRatio="xMidYMid meet" height="494" width="2000" xmlns="http://www.w3.org/2000/svg" xmlns:xlink="http://www.w3.org/1999/xlink"><g id="tight-bounds" transform="matrix(1,0,0,1,0.2400000000000091,-0.08423133913623815)"><svg viewBox="0 0 395.52 98.1684626782725" height="98.1684626782725" width="395.52"><g><svg viewBox="0 0 522.1633034927142 129.60145825972896" height="98.1684626782725" width="395.52"><g transform="matrix(1,0,0,1,0,33.54133254044602)"><svg viewBox="0 0 395.52 62.518793178836916" height="62.518793178836916" width="395.52"><g><svg viewBox="0 0 395.52 62.518793178836916" height="62.518793178836916" width="395.52"><g><svg viewBox="0 0 395.52 62.518793178836916" height="62.518793178836916" width="395.52"><g transform="matrix(1,0,0,1,0,0)"><svg width="395.52" viewBox="1.75 -35.8 228.68 36.15" height="62.518793178836916" data-palette-color="#34979d"><path d="M16.1 0.35Q9.95 0.35 6-2.58 2.05-5.5 1.75-10.95L1.75-10.95 12.2-10.95Q12.35-9.1 13.3-8.25 14.25-7.4 15.75-7.4L15.75-7.4Q17.1-7.4 17.98-8.08 18.85-8.75 18.85-9.95L18.85-9.95Q18.85-11.5 17.4-12.35 15.95-13.2 12.7-14.25L12.7-14.25Q9.25-15.4 7.13-16.48 5-17.55 3.43-19.63 1.85-21.7 1.85-25.05L1.85-25.05Q1.85-28.45 3.55-30.88 5.25-33.3 8.25-34.55 11.25-35.8 15.05-35.8L15.05-35.8Q21.2-35.8 24.88-32.93 28.55-30.05 28.8-24.85L28.8-24.85 18.15-24.85Q18.1-26.45 17.18-27.25 16.25-28.05 14.8-28.05L14.8-28.05Q13.7-28.05 13-27.4 12.3-26.75 12.3-25.55L12.3-25.55Q12.3-24.55 13.08-23.83 13.85-23.1 15-22.58 16.15-22.05 18.4-21.25L18.4-21.25Q21.75-20.1 23.93-18.98 26.1-17.85 27.68-15.83 29.25-13.8 29.25-10.7L29.25-10.7Q29.25-7.55 27.68-5.05 26.1-2.55 23.13-1.1 20.15 0.35 16.1 0.35L16.1 0.35ZM72.85-35.25L83.45-35.25 74.8 0 62.75 0 57.9-21.6 52.95 0 40.9 0 32.35-35.25 42.95-35.25 47.05-11.15 52.6-35.25 63.35-35.25 68.75-11.35 72.85-35.25ZM87.59-35.25L97.4-35.25 97.4 0 87.59 0 87.59-35.25ZM102.99-35.25L126.89-35.25 126.89-27.45 112.79-27.45 112.79-21.25 123.19-21.25 123.19-13.8 112.79-13.8 112.79 0 102.99 0 102.99-35.25ZM129.09-35.25L157.59-35.25 157.59-27.45 148.19-27.45 148.19 0 138.39 0 138.39-27.45 129.09-27.45 129.09-35.25ZM171.04-35.25L171.04-7.5 181.99-7.5 181.99 0 161.24 0 161.24-35.25 171.04-35.25ZM185.79-35.25L195.59-35.25 195.59 0 185.79 0 185.79-35.25ZM223.68-18.1Q226.78-17.4 228.61-15.03 230.43-12.65 230.43-9.6L230.43-9.6Q230.43-5.1 227.33-2.55 224.23 0 218.63 0L218.63 0 201.18 0 201.18-35.25 218.08-35.25Q223.48-35.25 226.56-32.85 229.63-30.45 229.63-26.1L229.63-26.1Q229.63-23 228.01-20.93 226.38-18.85 223.68-18.1L223.68-18.1ZM210.98-27.45L210.98-21.25 215.93-21.25Q219.63-21.25 219.63-24.3L219.63-24.3Q219.63-27.45 215.93-27.45L215.93-27.45 210.98-27.45ZM216.68-7.9Q220.38-7.9 220.38-11L220.38-11Q220.38-12.6 219.41-13.45 218.43-14.3 216.63-14.3L216.63-14.3 210.98-14.3 210.98-7.9 216.68-7.9Z" opacity="1" transform="matrix(1,0,0,1,0,0)" fill="#34979d" class="undefined-text-0" data-fill-palette-color="primary" id="text-0"></path></svg></g></svg></g></svg></g></svg></g><g transform="matrix(1,0,0,1,410.2791866184871,0)"><svg viewBox="0 0 111.88411687422716 129.60145825972896" height="129.60145825972896" width="111.88411687422716"><g><svg xmlns="http://www.w3.org/2000/svg" xmlns:xlink="http://www.w3.org/1999/xlink" version="1.1" x="0" y="0" viewBox="9.638 3.247 80.72399999999999 93.507" enable-background="new 0 0 100 100" xml:space="preserve" height="129.60145825972896" width="111.88411687422716" class="icon-icon-0" data-fill-palette-color="accent" id="icon-0"><g fill="#34979d" data-fill-palette-color="accent"><g fill="#34979d" data-fill-palette-color="accent"><polygon points="36.703,11.011 9.638,26.636 9.638,38.757 36.703,23.131 63.767,38.757 63.767,26.636   " fill="#34979d" data-fill-palette-color="accent"></polygon></g><g fill="#34979d" data-fill-palette-color="accent"><polygon points="63.298,89.092 36.233,73.467 36.233,61.348 63.298,76.973 90.362,61.348 90.362,73.467   " fill="#34979d" data-fill-palette-color="accent"></polygon></g><g fill="#34979d" data-fill-palette-color="accent"><polygon points="9.638,42.012 36.703,26.386 47.198,32.446 20.134,48.072 20.134,79.324 9.638,73.264   " fill="#34979d" data-fill-palette-color="accent"></polygon></g><g fill="#34979d" data-fill-palette-color="accent"><polygon points="77.083,18.872 50.018,3.247 39.522,9.307 66.586,24.932 66.586,56.184 77.083,50.124   " fill="#34979d" data-fill-palette-color="accent"></polygon></g><g fill="#34979d" data-fill-palette-color="accent"><polygon points="23.01,81.127 23.011,49.876 33.507,43.816 33.507,75.068 60.571,90.693 50.075,96.754   " fill="#34979d" data-fill-palette-color="accent"></polygon></g><g fill="#34979d" data-fill-palette-color="accent"><polygon points="90.362,58.092 90.362,26.84 79.866,20.78 79.866,52.031 52.802,67.658 63.298,73.719   " fill="#34979d" data-fill-palette-color="accent"></polygon></g></g></svg></g></svg></g></svg></g><defs></defs></svg><rect width="395.52" height="98.1684626782725" fill="none" stroke="none" visibility="hidden"></rect></g></svg></g></svg>