<svg width="170" height="105" viewBox="0 0 170 105" fill="none" xmlns="http://www.w3.org/2000/svg">
<g clip-path="url(#clip0_39_57)">
<path d="M62.0172 11.2292H107.983V93.7709H62.0172V11.2292Z" fill="#FF5F00"/>
<path d="M64.9356 52.5002C64.9356 35.7294 72.8154 20.8544 84.927 11.2294C76.0257 4.22943 64.7897 0.000244141 52.5322 0.000244141C23.4936 0.000244141 0 23.4794 0 52.5002C0 81.521 23.4936 105 52.5322 105C64.7897 105 76.0257 100.771 84.927 93.7711C72.8154 84.2919 64.9356 69.2711 64.9356 52.5002Z" fill="#EB001B"/>
<path d="M170 52.5C170 81.5208 146.506 105 117.468 105C105.21 105 93.9743 100.771 85.073 93.7708C97.3305 84.1458 105.064 69.2708 105.064 52.5C105.064 35.7292 97.1846 20.8542 85.073 11.2292C93.9743 4.22918 105.21 0 117.468 0C146.506 0 170 23.625 170 52.5Z" fill="#F79E1B"/>
</g>
<defs>
<clipPath id="clip0_39_57">
<rect width="170" height="105" fill="white"/>
</clipPath>
</defs>
</svg>
