<svg xmlns="http://www.w3.org/2000/svg" version="1.1" xmlns:xlink="http://www.w3.org/1999/xlink" xmlns:svgjs="http://svgjs.dev/svgjs" width="2000" height="555" viewBox="0 0 2000 555"><g transform="matrix(1,0,0,1,-1.2121212121212466,0.6188149307591289)"><svg viewBox="0 0 396 110" data-background-color="#0abcba" preserveAspectRatio="xMidYMid meet" height="555" width="2000" xmlns="http://www.w3.org/2000/svg" xmlns:xlink="http://www.w3.org/1999/xlink"><g id="tight-bounds" transform="matrix(1,0,0,1,0.2400000000000091,-0.12264800429460365)"><svg viewBox="0 0 395.52 110.24529600858922" height="110.24529600858922" width="395.52"><g><svg viewBox="0 0 568.7438482674902 158.5288579725769" height="110.24529600858922" width="395.52"><g transform="matrix(1,0,0,1,173.2238482674902,21.90955996581924)"><svg viewBox="0 0 395.52 114.70973804093842" height="114.70973804093842" width="395.52"><g><svg viewBox="0 0 395.52 114.70973804093842" height="114.70973804093842" width="395.52"><g><svg viewBox="0 0 395.52 62.338894847283754" height="62.338894847283754" width="395.52"><g transform="matrix(1,0,0,1,0,0)"><svg width="395.52" viewBox="3.25 -33.1 214.43 33.800000000000004" height="62.338894847283754" data-palette-color="#ffffff"><path d="M15.95 0.7L15.95 0.7Q12.58 0.7 9.74-0.48 6.9-1.65 5.14-4.05 3.38-6.45 3.25-10.15L3.25-10.15 9.05-10.15Q9.05-8.28 9.98-7.08 10.9-5.88 12.46-5.29 14.03-4.7 15.9-4.7L15.9-4.7Q17.7-4.7 19.11-5.18 20.53-5.65 21.34-6.54 22.15-7.43 22.15-8.65L22.15-8.65Q22.15-10.28 21.16-11.2 20.18-12.13 18-12.9L18-12.9 11.6-15.45Q7.85-16.93 5.85-18.88 3.85-20.83 3.85-24.25L3.85-24.25Q3.85-28.2 6.98-30.65 10.1-33.1 15.7-33.1L15.7-33.1Q21.15-33.1 24.13-30.56 27.1-28.03 27.5-23.5L27.5-23.5 21.7-23.5Q21.38-25.43 19.95-26.59 18.53-27.75 15.7-27.75L15.7-27.75Q13.2-27.75 11.75-26.71 10.3-25.68 10.3-24.1L10.3-24.1Q10.3-22.75 11.21-21.96 12.13-21.18 14.05-20.45L14.05-20.45 21.15-17.7Q24.75-16.3 26.68-14.18 28.6-12.05 28.6-8.85L28.6-8.85Q28.6-5.93 27.13-3.79 25.65-1.65 22.83-0.48 20 0.7 15.95 0.7ZM42.97 0L32.37-32.45 38.97-32.45 46.82-5.2 45.32-5.2 53.07-30.3 57.07-30.3 65.12-5.6 63.77-5.6 72.02-32.45 78.67-32.45 67.52 0 61.32 0 54.97-19.15 55.52-19.15 49.17 0 42.97 0ZM89.75 0L83.85 0 83.85-32.45 89.75-32.45 89.75 0ZM104.97 0L99.07 0 99.07-32.45 119.52-32.45 119.52-27.35 104.97-27.35 104.97-18.8 118.27-18.8 118.27-13.75 104.97-13.75 104.97 0ZM133.42-27.35L122.04-27.35 122.04-32.45 148.04-32.45 148.04-27.35 136.67-27.35 137.99-28.7 137.99 0 132.09 0 132.09-28.7 133.42-27.35ZM152.96-32.45L158.86-32.45 158.86-5.15 172.21-5.15 172.21 0 152.96 0 152.96-32.45ZM183.56 0L177.66 0 177.66-32.45 183.56-32.45 183.56 0ZM206.03 0L192.88 0 192.88-32.45 205.98-32.45Q209.73-32.45 212.21-31.29 214.68-30.13 215.91-28.18 217.13-26.23 217.13-23.85L217.13-23.85Q217.13-21.1 215.6-19.15 214.06-17.2 211.28-16.4L211.28-16.4Q213.11-16.03 214.56-15.03 216.01-14.03 216.85-12.5 217.68-10.98 217.68-9L217.68-9Q217.68-7.45 217.15-5.88 216.61-4.3 215.3-2.96 213.98-1.63 211.72-0.81 209.46 0 206.03 0L206.03 0ZM198.78-13.6L198.78-5.15 205.88-5.15Q208.71-5.15 210.02-6.29 211.33-7.43 211.33-9.35L211.33-9.35Q211.33-11.28 209.98-12.44 208.63-13.6 205.88-13.6L205.88-13.6 198.78-13.6ZM205.78-27.35L198.78-27.35 198.78-18.75 205.73-18.75Q208.36-18.75 209.72-19.91 211.08-21.08 211.08-23.1L211.08-23.1Q211.08-25.03 209.75-26.19 208.41-27.35 205.78-27.35L205.78-27.35Z" opacity="1" transform="matrix(1,0,0,1,0,0)" fill="#ffffff" class="undefined-text-0" data-fill-palette-color="primary" id="text-0"></path></svg></g></svg></g><g transform="matrix(1,0,0,1,75.54432,77.05561178725111)"><svg viewBox="0 0 244.43135999999998 37.65412625368731" height="37.65412625368731" width="244.43135999999998"><g transform="matrix(1,0,0,1,0,0)"><svg width="244.43135999999998" viewBox="2.55 -37.1 305.08 47" height="37.65412625368731" data-palette-color="#ffffff"><path d="M15.3 0.25Q11.45 0.25 7.98-1.07 4.5-2.4 2.55-4.5L2.55-4.5 3.7-6.4Q5.55-4.45 8.68-3.23 11.8-2 15.25-2L15.25-2Q20.25-2 22.8-3.9 25.35-5.8 25.35-8.85L25.35-8.85Q25.35-11.2 24-12.6 22.65-14 20.65-14.75 18.65-15.5 15.25-16.3L15.25-16.3Q11.4-17.25 9.08-18.15 6.75-19.05 5.13-20.93 3.5-22.8 3.5-25.95L3.5-25.95Q3.5-28.5 4.85-30.63 6.2-32.75 8.97-34 11.75-35.25 15.9-35.25L15.9-35.25Q18.8-35.25 21.6-34.4 24.4-33.55 26.45-32.1L26.45-32.1 25.5-30.05Q23.4-31.5 20.88-32.25 18.35-33 15.9-33L15.9-33Q11.05-33 8.55-31.05 6.05-29.1 6.05-26L6.05-26Q6.05-23.65 7.4-22.25 8.75-20.85 10.75-20.1 12.75-19.35 16.2-18.5L16.2-18.5Q20.05-17.55 22.35-16.65 24.65-15.75 26.28-13.93 27.9-12.1 27.9-9L27.9-9Q27.9-6.45 26.53-4.35 25.15-2.25 22.3-1 19.45 0.25 15.3 0.25L15.3 0.25ZM47.65-3.4L48.7-1.65Q47.75-0.75 46.32-0.28 44.9 0.2 43.35 0.2L43.35 0.2Q39.95 0.2 38.1-1.68 36.25-3.55 36.25-6.9L36.25-6.9 36.25-23.95 31.45-23.95 31.45-26.1 36.25-26.1 36.25-31.8 38.75-31.8 38.75-26.1 47.05-26.1 47.05-23.95 38.75-23.95 38.75-7.15Q38.75-4.6 39.97-3.28 41.2-1.95 43.6-1.95L43.6-1.95Q46.05-1.95 47.65-3.4L47.65-3.4ZM64.45-26.3Q69.3-26.3 71.9-23.83 74.5-21.35 74.5-16.55L74.5-16.55 74.5 0 72.09 0 72.09-4.65Q70.84-2.35 68.45-1.07 66.05 0.2 62.7 0.2L62.7 0.2Q58.35 0.2 55.82-1.85 53.3-3.9 53.3-7.25L53.3-7.25Q53.3-10.5 55.62-12.53 57.95-14.55 63.05-14.55L63.05-14.55 72-14.55 72-16.65Q72-20.3 70.02-22.2 68.05-24.1 64.25-24.1L64.25-24.1Q61.65-24.1 59.27-23.2 56.9-22.3 55.25-20.8L55.25-20.8 54-22.6Q55.95-24.35 58.7-25.33 61.45-26.3 64.45-26.3L64.45-26.3ZM63.05-1.85Q66.3-1.85 68.57-3.35 70.84-4.85 72-7.7L72-7.7 72-12.6 63.1-12.6Q59.25-12.6 57.52-11.2 55.8-9.8 55.8-7.35L55.8-7.35Q55.8-4.8 57.7-3.33 59.6-1.85 63.05-1.85L63.05-1.85ZM102.69-26.1L105.24-26.1 91.84 3.55Q90.34 7 88.37 8.45 86.39 9.9 83.69 9.9L83.69 9.9Q81.89 9.9 80.32 9.3 78.74 8.7 77.64 7.55L77.64 7.55 78.89 5.65Q80.89 7.7 83.74 7.7L83.74 7.7Q85.64 7.7 86.99 6.65 88.34 5.6 89.49 3.05L89.49 3.05 90.89-0.1 79.14-26.1 81.79-26.1 92.24-2.75 102.69-26.1ZM150.29-35L152.84-35 152.84 0 150.29 0 150.29-16.65 126.89-16.65 126.89 0 124.34 0 124.34-35 126.89-35 126.89-18.9 150.29-18.9 150.29-35ZM174.44 0.2Q170.74 0.2 167.76-1.5 164.78-3.2 163.09-6.23 161.38-9.25 161.38-13.05L161.38-13.05Q161.38-16.85 163.09-19.88 164.78-22.9 167.76-24.6 170.74-26.3 174.44-26.3L174.44-26.3Q178.13-26.3 181.11-24.6 184.09-22.9 185.78-19.88 187.49-16.85 187.49-13.05L187.49-13.05Q187.49-9.25 185.78-6.23 184.09-3.2 181.11-1.5 178.13 0.2 174.44 0.2L174.44 0.2ZM174.44-2.05Q177.44-2.05 179.81-3.45 182.19-4.85 183.56-7.35 184.94-9.85 184.94-13.05L184.94-13.05Q184.94-16.25 183.56-18.75 182.19-21.25 179.81-22.65 177.44-24.05 174.44-24.05L174.44-24.05Q171.44-24.05 169.06-22.65 166.69-21.25 165.31-18.75 163.94-16.25 163.94-13.05L163.94-13.05Q163.94-9.85 165.31-7.35 166.69-4.85 169.06-3.45 171.44-2.05 174.44-2.05L174.44-2.05ZM205.43 0.2Q201.73 0.2 198.76-1.5 195.78-3.2 194.08-6.23 192.38-9.25 192.38-13.05L192.38-13.05Q192.38-16.85 194.08-19.88 195.78-22.9 198.76-24.6 201.73-26.3 205.43-26.3L205.43-26.3Q209.13-26.3 212.11-24.6 215.08-22.9 216.78-19.88 218.48-16.85 218.48-13.05L218.48-13.05Q218.48-9.25 216.78-6.23 215.08-3.2 212.11-1.5 209.13 0.2 205.43 0.2L205.43 0.2ZM205.43-2.05Q208.43-2.05 210.81-3.45 213.18-4.85 214.56-7.35 215.93-9.85 215.93-13.05L215.93-13.05Q215.93-16.25 214.56-18.75 213.18-21.25 210.81-22.65 208.43-24.05 205.43-24.05L205.43-24.05Q202.43-24.05 200.06-22.65 197.68-21.25 196.31-18.75 194.93-16.25 194.93-13.05L194.93-13.05Q194.93-9.85 196.31-7.35 197.68-4.85 200.06-3.45 202.43-2.05 205.43-2.05L205.43-2.05ZM246.63 0L235.53-13.95 228.73-7.75 228.73 0 226.23 0 226.23-37.1 228.73-37.1 228.73-10.85 245.43-26.1 248.63-26.1 237.38-15.55 249.73 0 246.63 0ZM276.68-13.15L276.63-12.45 254.18-12.45Q254.28-9.4 255.73-7.03 257.18-4.65 259.65-3.35 262.13-2.05 265.23-2.05L265.23-2.05Q267.78-2.05 269.95-2.98 272.13-3.9 273.58-5.7L273.58-5.7 275.03-4.05Q273.33-2 270.75-0.9 268.18 0.2 265.18 0.2L265.18 0.2Q261.28 0.2 258.23-1.5 255.18-3.2 253.45-6.2 251.73-9.2 251.73-13.05L251.73-13.05Q251.73-16.85 253.35-19.88 254.98-22.9 257.83-24.6 260.68-26.3 264.23-26.3L264.23-26.3Q267.78-26.3 270.6-24.63 273.43-22.95 275.05-19.95 276.68-16.95 276.68-13.15L276.68-13.15ZM264.23-24.1Q261.48-24.1 259.28-22.88 257.08-21.65 255.75-19.43 254.43-17.2 254.23-14.4L254.23-14.4 274.23-14.4Q274.08-17.2 272.73-19.4 271.38-21.6 269.18-22.85 266.98-24.1 264.23-24.1L264.23-24.1ZM305.13-37.1L307.63-37.1 307.63 0 305.18 0 305.18-6.15Q303.63-3.1 300.82-1.45 298.02 0.2 294.48 0.2L294.48 0.2Q290.82 0.2 287.88-1.5 284.93-3.2 283.25-6.2 281.57-9.2 281.57-13.05L281.57-13.05Q281.57-16.9 283.25-19.93 284.93-22.95 287.88-24.63 290.82-26.3 294.48-26.3L294.48-26.3Q297.98-26.3 300.75-24.65 303.52-23 305.13-20.05L305.13-20.05 305.13-37.1ZM294.63-2.05Q297.63-2.05 300-3.45 302.38-4.85 303.75-7.35 305.13-9.85 305.13-13.05L305.13-13.05Q305.13-16.25 303.75-18.75 302.38-21.25 300-22.65 297.63-24.05 294.63-24.05L294.63-24.05Q291.63-24.05 289.25-22.65 286.88-21.25 285.5-18.75 284.13-16.25 284.13-13.05L284.13-13.05Q284.13-9.85 285.5-7.35 286.88-4.85 289.25-3.45 291.63-2.05 294.63-2.05L294.63-2.05Z" opacity="1" transform="matrix(1,0,0,1,0,0)" fill="#ffffff" class="undefined-text-1" data-fill-palette-color="secondary" id="text-1"></path></svg></g></svg></g></svg></g></svg></g><g><svg viewBox="0 0 158.50713132752284 158.5288579725769" height="158.5288579725769" width="158.50713132752284"><g><svg xmlns="http://www.w3.org/2000/svg" xmlns:xlink="http://www.w3.org/1999/xlink" version="1.1" x="0" y="0" viewBox="0 0 100.00029291407112 100.01400000000001" enable-background="new 0 0 100 100" xml:space="preserve" width="158.50713132752284" height="158.5288579725769" class="icon-icon-0" data-fill-palette-color="accent" id="icon-0"><g fill="#ffffff" data-fill-palette-color="accent"><path fill-rule="evenodd" clip-rule="evenodd" d="M47.094 0c1.942 0 3.883 0 5.825 0 10.356 0.849 19.129 4.168 25.128 8.82C61.246 8.883 54.905 19.405 54.25 35.612c-15.567-1.059-23.271 7.274-25.461 20.801-0.311 1.919-0.895 4.478-0.499 5.991 0.271 1.034 2.267 2.434 3.328 3.495 7.606 7.605 16.56 16.241 23.963 23.131-0.032-16.92 8.874-29.091 25.96-26.793 0.058-1.493-0.018-3.058 0.167-4.659 1.243-10.834 6.325-19.423 16.308-21.633 5.259 17.274-0.753 34.767-8.485 44.765-8.285 10.709-20.7 18.117-37.942 19.304-1.054 0-2.109 0-3.162 0-14.57-0.865-25.623-6.485-33.449-14.312C7.138 77.863 1.101 67.272 0 52.919c0-1.942 0-3.882 0-5.825 0.867-13.358 7.115-25.247 14.644-32.617C22.666 6.625 33.348 1.112 47.094 0z" fill="#ffffff" data-fill-palette-color="accent"></path></g></svg></g></svg></g></svg></g><defs></defs></svg><rect width="395.52" height="110.24529600858922" fill="none" stroke="none" visibility="hidden"></rect></g></svg></g></svg>