<svg width="535" height="666" viewBox="0 0 535 666" fill="none" xmlns="http://www.w3.org/2000/svg">
<g clip-path="url(#clip0_150_285)">
<path d="M428.1 98.4002C430.7 97.8002 433.1 96.7002 435.4 95.2002C433.1 93.8002 430.7 92.8002 428.1 92.0002C425.5 91.2002 423.4 89.2002 422.6 86.5002C422 83.9002 420.9 81.5002 419.4 79.2002C418 81.5002 417 83.9002 416.2 86.5002C415.4 89.1002 413.4 91.2002 410.7 92.0002C408.1 92.6002 405.5 93.7002 403.2 95.2002C405.5 96.6002 407.9 97.6002 410.7 98.4002C413.3 99.2002 415.4 101.2 416.2 103.9C416.8 106.5 417.9 108.9 419.4 111.2C420.8 108.9 421.8 106.5 422.6 103.9C423.3 101.2 425.3 99.0002 428.1 98.4002Z" fill="#34979D"/>
<path d="M438 125.7C440.209 125.7 442 123.909 442 121.7C442 119.491 440.209 117.7 438 117.7C435.791 117.7 434 119.491 434 121.7C434 123.909 435.791 125.7 438 125.7Z" fill="#34979D"/>
<path d="M257.6 590L259.7 613.1L296.1 621.1C300.2 622 303.6 624.9 305.1 628.9L306.6 632.9L216 631.7C212.3 631.5 209.4 628.5 209.6 624.7C209.6 624.5 209.6 624.5 209.6 624.4L211.6 590" fill="#FBD7AD"/>
<path d="M309.5 635.1L207.1 633.6L206.5 614.9L233.6 614.1C237.1 612.6 239.7 609.5 242.2 606.4C244.7 603.3 247.1 600.3 250.6 598.6C254.1 596.9 258.6 596.6 261.3 599.2C262.5 603.2 264.1 607.8 265.1 611.7C276.1 613.5 287.7 616.1 298.9 618.3C301.7 618.8 304.3 620.4 305.9 622.7C308.3 626.2 309.1 630.5 310.5 633.4C310.8 633.9 310.5 634.6 310 634.8C309.8 635.1 309.6 635.1 309.5 635.1Z" fill="white" stroke="#B9C6E4" stroke-width="1.5303" stroke-miterlimit="10"/>
<path d="M217.8 197.1L200 256.3C197.2 265.6 201.2 275.4 209.5 279.3L257.2 293.4L264.9 261.3L242.3 250.9L258.5 209.6L217.8 197.1Z" fill="#FBD7AD"/>
<path d="M342.1 590.9L344.2 613.7L380.6 621.7C384.7 622.6 388.1 625.5 389.6 629.5L391.1 633.5L300.4 632.1C296.7 631.9 293.8 628.9 294 625.1C294 624.9 294 624.9 294 624.8L296 591.9" fill="#FBD7AD"/>
<path d="M394 635.9L291.6 634.2L291 615.5L317.9 614.7C321.4 613.2 324 610.1 326.5 607C328.9 603.9 331.4 600.9 334.9 599.2C338.4 597.5 342.9 597.2 345.8 599.8C347 603.8 348.6 608.4 349.6 612.3C360.6 614.1 372.2 616.9 383.4 618.9C386.2 619.4 388.8 621 390.4 623.3C392.8 626.7 393.6 631.1 395 634C395.3 634.5 395 635.1 394.5 635.4C394.3 635.9 394.1 635.9 394 635.9Z" fill="white" stroke="#B9C6E4" stroke-width="1.5303" stroke-miterlimit="10"/>
<path d="M210.8 205.9L226.4 162.9C230.2 152.5 240 145.6 251.2 145.5L323 145.3C335.1 145.3 345.6 153.4 348.7 165.2L354.8 205.8L312.6 212.2L322.4 264.1L238.2 257.2L239.9 215.3L210.8 205.9Z" fill="#34979D"/>
<path d="M270.9 145.6L277.8 119.6L267.2 105.5L313.9 76.1001L327.8 117.6C328.7 120.4 327.2 123.3 324.6 124.2C324 124.4 323.5 124.5 322.9 124.5L310.8 124.3L314.2 145.6" fill="#FBD7AD"/>
<path d="M266.3 108.7L256 96.2001C253.7 93.0001 253.4 89.0001 255.2 85.5001L263.5 69.1001C266.9 62.4001 274.1 58.4001 281.6 59.3001L303.2 61.6001C306.9 61.9001 310.1 64.4001 311.6 67.7001L314.4 74.3001" fill="#307B80"/>
<path d="M293.7 105.5L281.8 112.1L284.4 102L293.7 105.5Z" fill="#34979D"/>
<path d="M317.4 92.2998L325.5 96.0998C326.6 96.5998 327 97.8998 326.6 98.9998C326.4 99.1998 326.4 99.2998 326.3 99.4998L322.2 104.4" fill="#FBD7AD"/>
<path d="M312.9 75.0002L341.6 69.7002" stroke="#307B80" stroke-width="1.5303" stroke-miterlimit="10"/>
<path d="M311 75.4998C304.6 79.8998 298.5 84.4998 292 88.9998C293.7 91.0998 296.3 92.3998 299 92.1998C301.9 91.8998 304.4 90.0998 305.7 87.5998C313.5 91.9998 323.8 92.9998 329.6 85.1998C332.4 81.4998 333.3 76.7998 332.2 72.2998L311 75.4998Z" fill="#545454"/>
<path d="M267.3 105.5L264.4 116.2C269.3 119.6 275.6 119.4 280.3 115.7C284.7 112.2 285.5 99.8001 283.2 94.6001" fill="#545454"/>
<path d="M297.4 95.7001C296.2 91.4001 292 88.5001 287.6 88.8001C283.3 89.3001 279.8 94.0001 280.9 98.1001C281.7 100.7 283.7 102.7 286.1 103.8C288.5 104.9 291.1 105.3 293.9 105.5" fill="#FBD7AD"/>
<path opacity="0.49" d="M296.5 110.7C300.808 110.7 304.3 107.208 304.3 102.9C304.3 98.5923 300.808 95.1001 296.5 95.1001C292.192 95.1001 288.7 98.5923 288.7 102.9C288.7 107.208 292.192 110.7 296.5 110.7Z" fill="#EF749B"/>
<path d="M311.6 102.9C314.8 105.8 319.1 107 323.2 106.1" stroke="#307B80" stroke-width="1.5303" stroke-miterlimit="10" stroke-linecap="round" stroke-linejoin="round"/>
<path d="M310.7 124.3L300 122.5L312.1 131.8" fill="#34979D"/>
<path d="M304.7 212.3L299.5 177.9" stroke="#02B0BB" stroke-width="1.5303" stroke-miterlimit="10"/>
<path d="M238.3 257.4L223.8 323.8L216 447.6L200.1 590.2L265.1 589.9L285.9 369.4L298.9 407.2L287.1 593.1L345.1 591L363 437.1C366.2 412.3 363.8 387.2 356.1 363.5L323.4 263L238.3 257.4Z" fill="#B9C6E4"/>
<path d="M322.2 275.3L235.3 269.8L238.3 257.4L323 262.8L322.2 275.3Z" fill="#307B80"/>
<path d="M298.9 407.2L267.3 314.2L252.6 313.3" stroke="#307B80" stroke-width="1.5303" stroke-miterlimit="10"/>
<path d="M245.2 299.5L237.7 321.8C235.6 328.1 229.6 332.1 223.2 331.6" stroke="#307B80" stroke-width="1.5303" stroke-miterlimit="10"/>
<path opacity="0.46" d="M300.3 302.9L335.7 400.4L318.8 591.2" stroke="#307B80" stroke-width="1.5303" stroke-miterlimit="10" stroke-dasharray="6.12 6.12"/>
<path d="M496.4 170.4H349.3V265.1H496.4V170.4Z" fill="#34979D" stroke="#C8C6C3" stroke-width="1.5303" stroke-miterlimit="10"/>
<path d="M409.7 172H376.8V209.2H409.7V172Z" fill="white"/>
<path d="M496.4 170.4H443.8V265.1H496.4V170.4Z" fill="#34979D" stroke="#C8C6C3" stroke-width="1.5303" stroke-miterlimit="10"/>
<path d="M353.7 260.6L489.1 125.4" stroke="#C8C6C3" stroke-width="1.5303" stroke-miterlimit="10"/>
<path d="M358.6 265.7L494 130.3" stroke="#C8C6C3" stroke-width="1.5303" stroke-miterlimit="10"/>
<path d="M363.7 270.6L498.9 135.3" stroke="#C8C6C3" stroke-width="1.5303" stroke-miterlimit="10"/>
<path d="M368.6 275.6L504 140.2" stroke="#C8C6C3" stroke-width="1.5303" stroke-miterlimit="10"/>
<path d="M373.5 280.5L508.9 145.1" stroke="#C8C6C3" stroke-width="1.5303" stroke-miterlimit="10"/>
<path d="M378.5 285.4L513.8 150.2" stroke="#C8C6C3" stroke-width="1.5303" stroke-miterlimit="10"/>
<path d="M383.4 290.5L518.8 155.1" stroke="#C8C6C3" stroke-width="1.5303" stroke-miterlimit="10"/>
<path d="M388.5 295.4L523.7 160" stroke="#C8C6C3" stroke-width="1.5303" stroke-miterlimit="10"/>
<path d="M393.4 300.3L528.8 165" stroke="#C8C6C3" stroke-width="1.5303" stroke-miterlimit="10"/>
<path d="M398.2 305.3L533.7 169.9" stroke="#C8C6C3" stroke-width="1.5303" stroke-miterlimit="10"/>
<path d="M403.3 310.2L538.6 174.9" stroke="#C8C6C3" stroke-width="1.5303" stroke-miterlimit="10"/>
<path d="M408.2 315.3L543.6 179.8" stroke="#C8C6C3" stroke-width="1.5303" stroke-miterlimit="10"/>
<path d="M413.2 320.2L548.5 184.7" stroke="#C8C6C3" stroke-width="1.5303" stroke-miterlimit="10"/>
<path d="M418.1 325.1L553.6 189.8" stroke="#C8C6C3" stroke-width="1.5303" stroke-miterlimit="10"/>
<path d="M423 330.1L558.5 194.7" stroke="#C8C6C3" stroke-width="1.5303" stroke-miterlimit="10"/>
<path d="M428.1 335L563.4 199.7" stroke="#C8C6C3" stroke-width="1.5303" stroke-miterlimit="10"/>
<path d="M433 340.1L568.4 204.6" stroke="#C8C6C3" stroke-width="1.5303" stroke-miterlimit="10"/>
<path d="M437.9 345L573.3 209.5" stroke="#C8C6C3" stroke-width="1.5303" stroke-miterlimit="10"/>
<path d="M442.9 349.9L578.4 214.6" stroke="#C8C6C3" stroke-width="1.5303" stroke-miterlimit="10"/>
<path d="M447.8 354.9L583.3 219.5" stroke="#C8C6C3" stroke-width="1.5303" stroke-miterlimit="10"/>
<path d="M452.9 359.8L588.2 224.5" stroke="#C8C6C3" stroke-width="1.5303" stroke-miterlimit="10"/>
<path d="M457.8 364.7L593.2 229.4" stroke="#C8C6C3" stroke-width="1.5303" stroke-miterlimit="10"/>
<path d="M310.1 210.9L320.8 289.1C321.9 297.1 328.3 303.2 336.3 304.2C341.7 304.8 443 276.8 443 276.8L475.3 271.8C475.8 267.7 472.9 264 468.9 263.5L429.6 263.2L425.2 246.4C424.1 242.1 420.5 238.9 416 238.3L416.6 264.5L354 265.3L349.1 202.7" fill="#FBD7AD"/>
<path d="M300.5 93.1997C303.1 89.6997 308 88.8997 311.5 91.3997C312.9 92.2997 313.8 93.7997 314.4 95.3997C309.3 97.4997 304.3 96.0997 300.5 93.1997Z" fill="white"/>
<path d="M310.444 98.7957C312.819 98.7692 314.719 96.5094 314.688 93.7482C314.657 90.9871 312.707 88.7702 310.333 88.7967C307.958 88.8232 306.058 91.0831 306.089 93.8442C306.12 96.6054 308.07 98.8222 310.444 98.7957Z" fill="#545454"/>
<path d="M31 121H235.3C226.4 109.2 215.8 99.2002 201.4 95.9002C197.4 95.0002 193.2 94.4002 189.3 95.5002C185.4 96.6002 181.7 99.4002 180.6 103.4C165.2 80.2002 139 64.6002 111.6 59.8002C103.7 58.4002 95.3 58.1002 88.2 61.6002C81.2 65.1002 76.4 71.8002 75.4 79.6002C74.5 87.4002 77.5 95.1002 83.4 100.2C79.7 91.7002 66.9 87.8002 60.3 94.3002C55.8 98.7002 54.7 105.5 51.3 110.9C46.9 117.5 38.8 121 31 121Z" stroke="#C2D9F0" stroke-miterlimit="10"/>
</g>
<defs>
<clipPath id="clip0_150_285">
<rect width="535" height="666" fill="white"/>
</clipPath>
</defs>
</svg>
