<svg width="819" height="627" viewBox="0 0 819 627" fill="none" xmlns="http://www.w3.org/2000/svg">
<path d="M70.5802 101.678H299.16C290.221 91.5002 275.148 87.8651 261.843 90.7732C255.19 85.2686 248.434 79.2448 241.781 73.6364C233.985 67.0932 226.085 60.5501 216.626 56.8111C207.167 53.0722 195.837 52.6567 187.417 58.1613C178.997 63.6658 174.943 76.2328 180.66 84.5416C175.671 79.8679 155.817 66.6778 142.927 80.9065C139.289 84.9571 139.705 91.6041 135.963 95.6546C130.35 101.678 112.887 97.6279 104.675 96.4855C80.2473 93.1619 84.717 101.678 70.5802 101.678Z" fill="#7A7E7E"/>
<path d="M620.149 171.991C646.344 171.472 663.599 148.935 682.517 134.083C688.026 129.617 694.055 125.982 700.604 123.281C702.475 122.554 701.644 119.542 699.773 120.269C676.28 129.617 662.248 152.466 639.899 163.683C633.766 166.902 627.009 168.668 620.149 168.876C618.174 168.876 618.174 171.991 620.149 171.991Z" fill="#3E3D41"/>
<path d="M407.577 98.8743H605.077C614.016 98.8743 621.293 106.144 621.293 115.076V512.651C621.293 521.583 614.016 528.853 605.077 528.853H407.577C398.638 528.853 391.361 521.583 391.361 512.651V114.972C391.361 106.041 398.638 98.8743 407.577 98.8743Z" fill="white" stroke="#34979D" stroke-miterlimit="10"/>
<path d="M592.499 150.908H422.753V308.671H592.499V150.908Z" stroke="#FFE2C0" stroke-miterlimit="10"/>
<path d="M447.389 284.575H498.219" stroke="#FFE2C0" stroke-miterlimit="10"/>
<path d="M447.389 267.127H535.744" stroke="#FFE2C0" stroke-miterlimit="10"/>
<path d="M556.221 170.433H582.728" stroke="#FFE2C0" stroke-miterlimit="10"/>
<path opacity="0.26" d="M475.247 215.82C496.452 208.446 519.736 210.316 539.486 221.013C543.228 201.799 530.651 183.312 511.42 179.573C492.19 175.834 473.688 188.401 469.945 207.615C469.53 209.796 469.322 212.081 469.322 214.366C469.322 215.612 469.426 216.859 469.53 218.105C471.401 217.17 473.272 216.443 475.247 215.82Z" fill="#FFE2C0"/>
<path d="M568.072 335.051H592.499V492.813H422.753V335.051H438.761" stroke="#FFE2C0" stroke-miterlimit="10"/>
<path d="M447.389 468.822H498.219" stroke="#FFE2C0" stroke-miterlimit="10"/>
<path d="M447.389 451.27H535.744" stroke="#FFE2C0" stroke-miterlimit="10"/>
<path d="M556.221 354.576H582.728" stroke="#FFE2C0" stroke-miterlimit="10"/>
<path opacity="0.26" d="M522.751 367.974C510.381 371.402 497.491 371.817 484.914 369.117C468.698 380.022 464.436 402.04 475.351 418.242C486.265 434.444 508.302 438.703 524.518 427.797C540.733 416.892 544.995 394.874 534.081 378.672C531.17 374.31 527.324 370.675 522.751 367.974Z" fill="#FFE2C0"/>
<path d="M574.1 329.027L429.718 326.015L420.259 294.234L427.639 260.791H574.1L581.377 294.857L574.1 329.027Z" fill="white" stroke="#C2D9F0" stroke-miterlimit="10"/>
<path d="M458.095 358.731L474.623 366.832L437.202 443.065C434.915 447.634 429.406 449.504 424.832 447.323C420.259 445.038 418.388 439.533 420.571 434.964L458.095 358.731Z" fill="#34979D"/>
<path d="M453.729 367.663L468.282 379.918L473.376 369.532L456.328 362.366L453.729 367.663Z" fill="#3E3D41"/>
<path d="M564.121 241.577C591.46 276.162 585.638 326.327 551.128 353.642C516.618 380.957 466.307 375.141 438.969 340.659C411.631 306.074 417.452 255.91 451.962 228.595C458.927 223.09 466.827 218.728 475.247 215.82C507.366 204.499 543.02 214.885 564.121 241.577Z" stroke="#34979D" stroke-width="7" stroke-miterlimit="10"/>
<path d="M264.338 267.127C257.893 258.818 255.398 248.017 255.086 237.527C254.671 226.102 257.685 214.678 256.854 203.565C256.126 193.075 258.413 182.585 263.61 173.445C274.317 154.543 297.601 142.599 319.222 148.104C327.538 150.181 334.71 155.374 342.714 158.697C357.474 164.929 376.913 162.229 391.361 155.27C391.465 155.582 391.257 158.593 391.361 158.905V256.533C385.124 265.984 376.913 275.435 366.83 280.421C356.747 285.406 344.793 286.964 333.878 283.952C319.846 280.005 307.996 268.788 293.339 268.061C287.726 267.75 282.217 269.1 276.604 269.308C270.99 269.515 267.768 271.593 264.338 267.127Z" fill="#3E3D41"/>
<path d="M259.556 283.329L280.45 228.179L272.757 203.461C269.847 194.113 270.99 184.039 275.98 175.626L280.034 168.876C286.894 157.139 300.096 150.492 313.609 152.05C324.315 153.297 333.982 159.424 339.492 168.668C342.922 174.38 344.897 180.923 345.209 187.57L347.807 239.604C348.119 245.42 344.481 250.821 338.972 252.794C336.373 253.729 333.567 253.833 330.864 253.002L313.609 248.016L313.193 294.546L324.731 342.113L282.113 348.553L259.556 283.329Z" fill="#FFE2C0"/>
<path d="M321.093 292.261C321.093 292.261 317.351 291.43 312.985 290.703L307.788 326.015C307.06 330.585 303.63 334.116 299.056 335.051C294.586 335.882 290.117 333.805 287.726 329.962L259.66 282.81C249.785 281.771 241.365 281.356 237.208 282.186C221.927 285.198 194.797 299.842 173.072 379.503L172.76 381.476C171.513 388.435 174.112 395.497 179.517 400.067L189.808 408.687L259.556 421.566L347.807 401.936L361.944 379.607C361.944 379.503 345.417 296.623 321.093 292.261Z" fill="#34979D"/>
<path d="M262.155 197.749C276.292 204.292 295.21 203.045 309.763 197.645C324.315 192.244 335.646 175.73 337.309 160.255C331.176 151.635 319.846 148.208 309.347 149.246C298.848 150.285 288.973 155.789 281.593 163.371C274.213 170.953 266.417 188.09 262.155 197.749Z" fill="#3E3D41"/>
<path d="M267.248 339.309L257.062 429.875" stroke="#FAFAFA" stroke-miterlimit="10"/>
<path d="M476.702 396.951L444.478 386.461L453.833 367.663L400.716 391.654L254.151 419.696L257.061 399.236C247.29 399.236 237.831 393.939 229.515 388.435C220.056 382.203 210.285 375.14 198.955 374.413C196.252 374.206 193.55 374.413 190.847 375.037C184.922 396.639 173.176 445.453 181.18 463.006C191.679 485.751 200.202 507.977 316.311 463.006L406.018 437.145C406.018 437.145 428.678 434.86 446.973 434.237C452.274 433.094 457.472 431.432 462.461 429.459C465.683 428.005 467.658 424.889 467.658 421.358V418.034C467.658 418.034 471.712 415.75 472.856 413.361C473.999 410.972 472.856 405.675 472.856 405.675C472.856 405.675 479.405 405.883 480.964 402.248C482.523 398.613 476.702 396.951 476.702 396.951Z" fill="#FFE2C0"/>
<path d="M173.696 385.319C179.829 377.945 189.184 373.894 198.851 374.414C210.181 375.141 219.952 382.203 229.411 388.435C238.871 394.666 249.785 400.69 261.011 398.924" stroke="#FAFAFA" stroke-miterlimit="10"/>
<path d="M333.878 350.837C346.352 363.404 348.431 384.903 338.66 399.651" stroke="#FAFAFA" stroke-miterlimit="10"/>
<path d="M287.726 203.253C285.959 196.606 279.098 192.763 272.446 194.633C265.793 196.398 261.947 203.253 263.818 209.9C265.169 214.885 269.535 218.624 274.421 220.078C279.306 221.532 284.711 220.909 289.597 219.351" fill="#FFE2C0"/>
<path d="M312.673 204.707C317.767 199.099 326.498 198.683 332.111 203.876C333.982 205.642 335.334 207.823 336.061 210.212C327.85 212.912 318.806 210.835 312.673 204.707Z" fill="white"/>
<path d="M322.652 207.096C322.444 204.707 323.068 202.318 324.315 200.241C329.928 200.761 334.606 204.707 336.165 210.108C332.111 211.458 327.85 211.666 323.692 210.731C323.068 209.589 322.756 208.446 322.652 207.096Z" fill="#3E3D41"/>
<path d="M316.311 192.867C321.405 188.297 329.201 188.817 333.775 193.906L333.879 194.01C327.746 193.802 322.34 193.179 316.311 192.867Z" fill="#3E3D41" stroke="#3E3D41" stroke-width="0.25" stroke-linejoin="round"/>
<path d="M313.609 205.019C315.896 202.111 319.326 200.345 322.964 200.241C326.498 200.137 329.929 201.695 332.319 204.395C333.671 205.849 334.606 207.719 335.022 209.692C335.126 210.315 336.165 210.108 336.061 209.381C335.126 205.642 332.631 202.526 329.201 200.657C323.588 197.852 316.727 199.306 312.777 204.292C312.465 204.811 313.193 205.642 313.609 205.019Z" fill="#3E3D41"/>
<path d="M344.065 207.615C346.144 208.965 348.119 210.523 349.99 212.185C350.718 212.704 351.342 213.535 351.757 214.366C352.277 216.028 351.03 217.793 349.574 218.728C348.119 219.663 346.352 220.286 345.105 221.429" fill="#FFE2C0"/>
<path d="M324.419 220.494C328.161 224.648 333.775 226.517 339.284 225.271" stroke="#3E3D41" stroke-miterlimit="10"/>
<path d="M472.856 405.675L435.643 404.117" stroke="#34979D" stroke-miterlimit="10"/>
<path d="M467.763 417.931L433.044 421.462" stroke="#34979D" stroke-miterlimit="10"/>
<path d="M242.821 432.263L254.047 419.696" stroke="#34979D" stroke-miterlimit="10"/>
<path opacity="0.21" d="M311.114 229.841C316.281 229.841 320.469 225.656 320.469 220.494C320.469 215.331 316.281 211.146 311.114 211.146C305.947 211.146 301.759 215.331 301.759 220.494C301.759 225.656 305.947 229.841 311.114 229.841Z" fill="#EF749B"/>
<path opacity="0.19" d="M313.401 277.513C308.203 277.72 303.318 273.254 301.135 268.477C298.952 263.699 298.432 258.403 297.289 253.313C296.146 248.224 295.002 241.266 290.74 238.15L314.025 247.809C313.921 257.572 313.401 267.958 313.401 277.513Z" fill="#34979D"/>
<path d="M673.578 205.122C688.858 197.852 703.515 189.336 717.444 179.677C714.741 162.332 711.207 145.092 706.945 127.955C684.7 134.706 666.821 154.335 645.2 164.721C637.612 168.356 629.504 170.953 621.188 172.407V284.99C656.634 290.183 692.808 284.263 724.616 267.854C724.408 243.862 722.745 219.871 719.73 195.983L673.578 205.122Z" fill="#3E3D41"/>
<path d="M593.331 473.392L577.011 528.022L592.915 527.918" fill="#FFE2C0"/>
<path d="M438.969 98.8743L446.349 119.335C448.22 124.528 453.106 127.955 458.615 127.955H550.92C556.533 127.955 561.523 124.424 563.29 119.127L570.15 98.8743H438.969Z" fill="#34979D"/>
<path d="M272.03 159.321C275.564 152.258 271.198 142.911 263.922 139.795C256.646 136.679 247.914 138.86 241.885 143.949C235.856 149.038 232.426 156.62 230.555 164.306C228.788 171.68 229.516 181.235 236.376 184.455C243.029 187.57 250.825 182.481 255.19 176.561C259.556 170.641 262.779 163.371 269.119 159.632" fill="#3E3D41"/>
<path d="M450.536 324.03L458.812 277.576H495.575L503.484 324.03H450.536Z" fill="#34979D"/>
<path d="M468.613 277.739C468.511 273.102 472.212 269.258 476.848 269.176C481.484 269.075 485.327 272.776 485.408 277.414C485.408 277.515 485.408 277.637 485.408 277.719" stroke="#9AC2C5" stroke-width="3" stroke-miterlimit="10" stroke-linecap="round" stroke-linejoin="round"/>
<path d="M503.2 267.203C503.078 261.468 507.653 256.708 513.387 256.586C519.121 256.464 523.879 261.041 524.001 266.776C524.001 266.898 524.001 267.041 524.001 267.163" stroke="#9CD0D3" stroke-width="3" stroke-miterlimit="10" stroke-linecap="round" stroke-linejoin="round"/>
<path d="M485.489 298.525L468.613 323.949H481.24L485.489 298.525Z" fill="#9AC2C5"/>
<path d="M480.833 324.641L491.081 267.142H536.567L546.367 324.641H480.833Z" fill="#34979D"/>
<path d="M512.411 300.905L505.213 324.6H512.411" fill="#9CD0D3"/>
<path d="M515.034 246.214C515.135 249.264 512.553 251.888 509.645 252.681C506.717 253.475 503.586 252.742 500.78 251.583C497.994 250.424 495.351 248.837 492.525 247.78C489.698 246.722 486.465 246.254 483.639 247.353C480.67 248.512 478.535 251.339 477.641 254.41C476.746 257.481 476.97 260.776 477.58 263.888" stroke="#88827B" stroke-width="2" stroke-miterlimit="10" stroke-dasharray="4 4"/>
<path d="M520.32 242.593C520.869 242.471 521.378 242.247 521.866 241.922C521.378 241.637 520.869 241.413 520.32 241.251C519.771 241.088 519.324 240.681 519.161 240.091C519.039 239.542 518.816 239.034 518.49 238.546C518.206 239.034 517.982 239.542 517.819 240.091C517.657 240.641 517.25 241.088 516.66 241.251C516.111 241.373 515.562 241.597 515.095 241.922C515.583 242.207 516.091 242.43 516.66 242.593C517.209 242.756 517.657 243.163 517.819 243.752C517.941 244.302 518.165 244.81 518.49 245.298C518.775 244.81 518.999 244.302 519.161 243.752C519.344 243.163 519.751 242.715 520.32 242.593Z" fill="#34979D"/>
</svg>
