<svg width="829" height="560" viewBox="0 0 829 560" fill="none" xmlns="http://www.w3.org/2000/svg">
<g clip-path="url(#clip0_153_317)">
<path d="M195.9 479.7L220.9 339.4H331.9L355.8 479.7H195.9Z" fill="white" stroke="#34979D" stroke-miterlimit="10"/>
<path d="M250.5 338.2C250.5 324.2 261.9 312.8 275.9 312.8C289.9 312.8 301.3 324.2 301.3 338.2" fill="white"/>
<path d="M250.5 338.2C250.5 324.2 261.9 312.8 275.9 312.8C289.9 312.8 301.3 324.2 301.3 338.2" stroke="#34979D" stroke-miterlimit="10"/>
<path d="M483.3 262.5L519.8 235.3L544 278.7L559.1 222.6C559.9 218.2 562.7 214.5 566.7 212.4L595.5 207.7L580.8 330.5L550.2 336.8L512.7 308.3L483.3 262.5Z" fill="#34979D"/>
<path d="M518.4 121.6L519.1 105L505.2 113.9L501 106.8L515.7 99.3L501 91.7L505.1 84.6L519 93.6L518.4 77H526.5L525.8 93.6L539.7 84.6L543.8 91.7L529 99.2L543.8 106.7L539.7 113.8L525.8 105L526.5 121.6H518.4Z" fill="#34979D"/>
<path d="M656.4 480.5C656.4 480.5 715.7 476.9 717.5 476.7C718.4 476.6 716.6 467.7 720.4 464.1L714 443.2C714 443.2 663.7 442.4 662.9 442.3C661.7 442 654 480 656.4 480.5Z" fill="#FBD7AD"/>
<path d="M546.8 343.4H355.8V490.5H546.8V343.4Z" fill="#E5F1F2" stroke="#1B98A0" stroke-miterlimit="10"/>
<path d="M510.9 344.4H468.3V393.8H510.9V344.4Z" fill="white"/>
<path d="M424 343.4H355.8V490.5H424V343.4Z" fill="#E5F1F2" stroke="#1B98A0" stroke-miterlimit="10"/>
<path d="M541 460.7L365.3 284.9" stroke="#1B98A0" stroke-miterlimit="10"/>
<path d="M534.6 467.1L358.8 291.4" stroke="#1B98A0" stroke-miterlimit="10"/>
<path d="M528.1 473.5L352.4 297.8" stroke="#1B98A0" stroke-miterlimit="10"/>
<path d="M521.7 480L346 304.2" stroke="#1B98A0" stroke-miterlimit="10"/>
<path d="M515.3 486.4L339.5 310.6" stroke="#1B98A0" stroke-miterlimit="10"/>
<path d="M508.8 492.8L333.1 317.1" stroke="#1B98A0" stroke-miterlimit="10"/>
<path d="M502.4 499.3L326.7 323.5" stroke="#1B98A0" stroke-miterlimit="10"/>
<path d="M496 505.7L320.2 330" stroke="#1B98A0" stroke-miterlimit="10"/>
<path d="M489.5 512.1L313.8 336.4" stroke="#1B98A0" stroke-miterlimit="10"/>
<path d="M483.1 518.6L307.4 342.8" stroke="#1B98A0" stroke-miterlimit="10"/>
<path d="M476.7 525L300.9 349.2" stroke="#1B98A0" stroke-miterlimit="10"/>
<path d="M470.2 531.5L294.5 355.7" stroke="#1B98A0" stroke-miterlimit="10"/>
<path d="M463.8 537.9L288 362.1" stroke="#1B98A0" stroke-miterlimit="10"/>
<path d="M457.4 544.3L281.6 368.6" stroke="#1B98A0" stroke-miterlimit="10"/>
<path d="M450.9 550.8L275.2 375" stroke="#1B98A0" stroke-miterlimit="10"/>
<path d="M444.5 557.2L268.7 381.4" stroke="#1B98A0" stroke-miterlimit="10"/>
<path d="M438.1 563.6L262.3 387.9" stroke="#1B98A0" stroke-miterlimit="10"/>
<path d="M431.6 570.1L255.9 394.3" stroke="#1B98A0" stroke-miterlimit="10"/>
<path d="M425.2 576.5L249.4 400.7" stroke="#1B98A0" stroke-miterlimit="10"/>
<path d="M418.8 582.9L243 407.2" stroke="#1B98A0" stroke-miterlimit="10"/>
<path d="M412.3 589.4L236.6 413.6" stroke="#1B98A0" stroke-miterlimit="10"/>
<path d="M405.9 595.8L230.1 420" stroke="#1B98A0" stroke-miterlimit="10"/>
<path d="M304.9 407.2H373.2L424 343.4H355.8L304.9 407.2Z" fill="#1B98A0"/>
<path opacity="0.5" d="M546.8 454.1L480.8 490.6H546.8V454.1Z" fill="#1B98A0"/>
<path d="M555.5 427.4C556.6 427 675.7 439.5 675.7 439.5L690.7 480.9L562.6 483.2" fill="#A7BBBC"/>
<path d="M550.2 421.1C550.2 421.1 560.7 467.9 561.2 469.6C561.5 470.5 565.5 479.5 569.3 482.7L596.8 483.2C596.8 483.2 585 424.9 585 424C585 422.8 550.3 418.6 550.2 421.1Z" fill="#FBD7AD"/>
<path d="M598.5 478.7C598.5 478.7 598.4 484 598.4 485.8L598.3 493.6C598.3 495.9 596.4 497.9 594 497.9L504.4 500.2C501.1 500.3 501.7 494.3 502.9 492.5C505 489.3 511.6 487.6 514.9 485.9C521.9 482.4 528.9 478.9 535.4 474.5C541.7 470.2 546.5 464.3 553.3 460.9C557.3 458.9 561.7 463.1 564.3 466C566.9 468.9 569.1 472.1 572.5 474C579.1 477.5 598.5 478.7 598.5 478.7Z" fill="#525155"/>
<path d="M502.1 494.4L597.3 492" stroke="white" stroke-miterlimit="10"/>
<path d="M519.7 482.5C524.5 483.1 528.3 486.9 528.7 491.8" stroke="white" stroke-miterlimit="10"/>
<path d="M543.3 474.2C543.3 473.3 544.2 472.5 545.1 472.6C546 472.6 546.8 473.5 546.7 474.4C546.7 475.3 545.8 476.1 544.9 476C544 476 543.3 475.3 543.3 474.4V474.2Z" stroke="white" stroke-miterlimit="10"/>
<path d="M535.5 478.6C535.5 477.6 536.4 476.8 537.4 476.9C538.4 477 539.2 477.8 539.1 478.8C539.1 479.8 538.2 480.6 537.2 480.5C536.3 480.5 535.5 479.7 535.5 478.8V478.6Z" stroke="white" stroke-miterlimit="10"/>
<path d="M536.1 477.2L534 474.8" stroke="white" stroke-width="0.75" stroke-miterlimit="10"/>
<path d="M543.8 472.9L541 469.7" stroke="white" stroke-width="0.75" stroke-miterlimit="10"/>
<path d="M784.9 481.9L713.2 478.7C713.4 475.2 712.8 469.6 713 466.2L695 441.3C695.4 440.3 703.4 436.9 706.8 435.6C709.8 434.4 713 434 715.1 436.5C721.1 443.7 728.5 450.8 733.7 458C750 461.4 761 462.7 771 465.5C777.8 467.3 784.1 474.6 784.9 481.9Z" fill="#525155"/>
<path d="M632 207.4C645.5 203.6 662.3 197.4 663.9 181.4C664.6 174.2 662.1 167 657 161.8C652.6 157.3 646.4 154.5 643.1 149.1C641.1 145.8 640.3 141.8 639.1 138.1C633.9 123.4 613.3 119.9 599.8 121.6C589.1 123 579.5 130 572.9 138C556.1 158.5 549.9 212.1 610.2 210.2C617.5 210 624.9 209.4 632 207.4Z" fill="#A4C6C8"/>
<path d="M629.3 163.9C624.6 168.6 631.1 176.2 634.1 180C638.4 185.5 641.2 191.5 638.9 198.7C634.9 211.2 621.2 212.6 610.1 209.9C606.2 209 602.4 206.8 600.3 203.3C597.5 198.5 598.6 192.4 600.3 187C601.9 181.9 603.9 176.8 607.5 172.8C610 169.9 613.4 167.8 617.2 166.9C619 166.5 620.6 167 622.4 166.8C624.6 166.6 627.1 165 629.1 164.2" fill="#595554"/>
<path d="M592.9 130.7C597.8 128.8 604.2 130.7 606.2 135.9C608.7 142.4 602.4 149.3 606.1 155.6C607.8 158.5 611.1 160.3 614.5 160.1C615.1 160.1 615.2 159.1 614.5 159.1C611.3 159.3 608.3 157.6 606.8 154.8C605.1 151.5 606.3 147.7 607.1 144.4C607.8 141.3 608.3 138 606.9 135C605.8 132.7 603.8 130.9 601.5 130C598.7 128.9 595.5 128.8 592.7 129.9C592 130 592.3 131 592.9 130.7Z" fill="#A4C6C8"/>
<path d="M647.2 112.8C658.6 110 670.2 116.9 673 128.4C674.1 133 673.7 137.8 671.8 142.1C670.1 146 666.6 149.7 662.3 149.6C657.5 149.5 654.2 144.9 652.1 140.6C650.6 137.5 649.2 134 646.6 131.6C643.6 128.8 639.5 129.3 636.5 126.8C629.7 121.1 642.3 114 647.2 112.8Z" fill="#A4C6C8"/>
<path d="M627 125.5C627.3 122.8 629.7 120.9 632.3 121.2C632.4 121.2 632.6 121.2 632.7 121.3C634.3 121.9 635.6 122.8 636.6 124.1C638.3 125.9 639.8 127.8 641.3 129.8C642.2 130.8 642.8 132.1 643 133.4C643.1 135.7 641.2 137.6 638.9 137.6C638.7 137.6 638.4 137.6 638.2 137.6" fill="white"/>
<path d="M627 125.5C627.3 122.8 629.7 120.9 632.3 121.2C632.4 121.2 632.6 121.2 632.7 121.3C634.3 121.9 635.6 122.8 636.6 124.1C638.3 125.9 639.8 127.8 641.3 129.8C642.2 130.8 642.8 132.1 643 133.4C643.1 135.7 641.2 137.6 638.9 137.6C638.7 137.6 638.4 137.6 638.2 137.6" stroke="#E5F1F2" stroke-miterlimit="10"/>
<path d="M640.8 128.7C642.8 129.3 644.9 129.8 646.6 131.4C649.2 133.8 650.6 137.3 652.1 140.4C654 144.2 656.8 148.2 660.8 149.2C663.9 147.8 666 144.8 666.3 141.4C666.5 138 665.2 134.6 662.8 132.2C660.3 129.8 657.2 128.3 653.9 127.8C649.5 127.2 645.1 127.9 640.8 128.7Z" fill="#595554"/>
<path d="M594.6 130.2C589.4 131.3 584.9 134.4 582.1 138.8C579.2 143.1 577.7 148.3 576.7 153.4C575.6 159.8 575.5 166.3 576.4 172.7C577.6 180.3 586.7 184.4 591.5 181.9L589.9 202.5L577.1 206.5L590.5 241.5L617.8 229.5L626.7 200L619.9 199.3L618.2 175.5C618.1 175.5 633 123.2 594.6 130.2Z" fill="#FBD7AD"/>
<path d="M615.3 159.2C617.1 157.5 619.2 156.2 621.4 155.3C623.7 154.4 626.3 154.6 628.4 156C630.6 157.8 631.3 160.9 630.2 163.5C629 166.1 626.5 167.8 623.7 168C620.9 168.2 618.1 167.4 615.9 165.6" fill="#FBD7AD"/>
<path d="M590.3 154.8C591.2 151.8 593.7 150.2 596.7 149.7C599.9 149.3 603 150.6 604.9 153.2C603.8 155.7 600.8 157.1 598 157.3C595.2 157.5 592.5 156.6 590.3 154.8Z" fill="white"/>
<path d="M590.8 154.3C590.8 154.4 590.9 154.4 590.9 154.5C591.3 155.3 594.6 157 596.8 155.4C598.3 154.3 599.3 150.8 598.9 149.6C597.2 149.1 595.2 149.9 593.7 150.8C593 151.2 590.4 153.2 590.8 154.3Z" fill="#34979D"/>
<path d="M590.7 154.9C591.3 153.1 592.5 151.6 594.2 150.6C595.5 149.9 597.1 149.7 598.5 150C599.9 150.2 601.2 150.7 602.4 151.4C603.3 151.9 604.1 152.6 604.6 153.4C604.8 153.8 605.5 153.4 605.3 153C604.3 151.3 602.2 150.3 600.4 149.7C598 148.8 595.3 149 593.2 150.4C591.7 151.5 590.6 153 590 154.7C589.8 155.2 590.5 155.4 590.7 154.9Z" fill="#525155"/>
<path d="M604.9 146.2C603.8 144.6 602.2 143.5 600.3 143.1C598.4 142.7 596.4 143.1 594.7 144.2C598.3 144.9 601.3 145.5 604.9 146.2Z" fill="#A4C6C8"/>
<path d="M594.6 144.6C594.4 144.5 594.2 144.3 594.3 144.1C594.3 144 594.4 143.9 594.5 143.8C596.2 142.7 598.4 142.3 600.4 142.7C602.4 143.1 604.1 144.3 605.3 146C605.4 146.2 605.4 146.4 605.2 146.6C605.1 146.7 605 146.7 604.9 146.7C603.1 146.4 601.4 146 599.8 145.7C598.2 145.4 596.4 144.9 594.6 144.6ZM600.4 143.6L600.1 143.5C598.7 143.2 597.2 143.4 595.8 144L599.7 144.8L603.7 145.6C603 144.6 601.8 143.9 600.4 143.6Z" fill="#A4C6C8"/>
<path d="M623 167.3C622.6 163.9 620.5 162 618.3 163C616.1 164 613.9 167.4 613.1 171.2C612.3 175 613 178.7 614.7 180.4C616.4 182.1 618.9 181.7 621 179.6" stroke="white" stroke-miterlimit="10"/>
<path d="M585 153.2L583.4 154.9C583 155.2 582.7 155.7 582.6 156.1C582.4 156.8 582.7 157.6 583.3 158.1C583.8 158.6 584.5 159 585.1 159.2" stroke="#525155" stroke-width="0.75" stroke-linecap="round" stroke-linejoin="round"/>
<path d="M580.9 163.7L592 165.5C590.8 167.1 589.3 168.4 587.5 169.3C585.8 170 583.9 169.9 582.4 169C580.9 168 580.3 165.4 580.9 163.7Z" stroke="#A4C6C8" stroke-linecap="round" stroke-linejoin="round"/>
<path d="M581.6 139.1C581.2 139.8 580.8 140.6 580.5 141.4L583.5 142.3C583.7 142.4 583.9 142.2 583.9 142C583.9 141.9 583.9 141.8 583.9 141.7C583.4 140.7 582.6 139.8 581.6 139.1Z" fill="#A4C6C8"/>
<path d="M583.4 142.6C582.3 142.3 581.3 142 580.4 141.7C580.3 141.7 580.2 141.6 580.1 141.5C580.1 141.4 580.1 141.3 580.1 141.2C580.4 140.5 580.8 139.7 581.2 138.9C581.3 138.8 581.3 138.7 581.5 138.7C581.6 138.7 581.7 138.7 581.8 138.8C582.8 139.5 583.7 140.5 584.3 141.6C584.5 142 584.4 142.4 584 142.6C583.8 142.7 583.6 142.7 583.4 142.6ZM581.1 141.1L583.6 141.8C583.1 141 582.5 140.3 581.8 139.7C581.5 140.2 581.3 140.6 581.1 141.1Z" fill="#A4C6C8"/>
<path d="M578.7 145.5C578.1 147.6 577.5 149.7 577.1 151.9V152.1C578.5 152.3 580 151.9 581.2 151.2C581.1 149 580.2 147 578.7 145.5Z" fill="white"/>
<path d="M578.2 152C578.9 151.2 579.4 150.2 579.4 149.1C579.6 148 579.5 146.8 579 145.8C578.9 145.8 578.7 145.6 578.6 145.6C577.8 147.7 577.2 149.9 576.9 152.1C577.4 152.2 577.8 152.1 578.2 152Z" fill="#34979D"/>
<path d="M578.6 145.7C580 146.9 580.8 148.8 580.8 150.7C580.8 150.9 581 151 581.2 151C581.4 151 581.5 150.8 581.5 150.7C581.6 148.6 580.7 146.6 579.1 145.2C579 145.1 578.7 145.1 578.6 145.2C578.5 145.3 578.5 145.6 578.6 145.7Z" fill="#525155"/>
<path opacity="0.85" d="M415.2 145.2H468.9C483 145.2 494.4 156.6 494.4 170.7V217.1C494.4 231.2 483 242.6 468.9 242.6H415.2C401.1 242.6 389.7 231.2 389.7 217.1V170.7C389.7 156.6 401.1 145.2 415.2 145.2Z" fill="white" stroke="#34979D" stroke-miterlimit="10"/>
<path d="M440.3 206.1C452.34 206.1 462.1 196.34 462.1 184.3C462.1 172.26 452.34 162.5 440.3 162.5C428.26 162.5 418.5 172.26 418.5 184.3C418.5 196.34 428.26 206.1 440.3 206.1Z" stroke="#34979D" stroke-miterlimit="10"/>
<path d="M405 227.7H436.3" stroke="#34979D" stroke-miterlimit="10"/>
<path d="M405 216.9H459.4" stroke="#34979D" stroke-miterlimit="10"/>
<path d="M519.8 235.3L510.2 215.2C507 205 505.5 199 503.8 192.4C503.2 190.1 501.6 188.2 499.4 187.3C491.9 184.1 483.9 181.2 476.5 177.9C474.5 180.1 476.5 184.3 479 185.9C481.5 187.5 484.7 188 486.7 190.2C489.5 193.1 489.2 197.7 489 201.7C488.8 205.7 489.6 210.5 493.2 212.3C493.2 212.3 494.3 234.4 494.3 242.7C495.8 245.6 496.9 248.7 497.7 251.9" fill="#FBD7AD"/>
<path opacity="0.3" d="M588.7 183.1L603.8 177.9C603.8 177.9 600.7 192.1 588.3 192.7" fill="#1B98A0"/>
<path d="M64.1001 206.8V101.1H326.1V253.8H188.9" fill="white"/>
<path d="M64.1001 206.8V101.1H326.1V253.8H188.9" stroke="#93C9CC" stroke-miterlimit="10"/>
<path d="M352.7 73.3999H90.7002V226H352.7V73.3999Z" fill="white" stroke="#E5F1F2" stroke-miterlimit="10"/>
<path d="M273.9 76.5C276.2 82.2 274.6 88.7 269.9 92.6C267.4 94.6 264 95.6 261.1 94.3C258.2 93 256.8 89.6 256.2 86.4C255.3 81.6 255.1 72.4 260.2 69.5C265.3 66.6 271.9 72 273.9 76.5Z" fill="#525155"/>
<path d="M208.4 164.8L216.4 98.8001L214.5 96.8001C206.3 88.4001 206.5 74.9001 214.9 66.8001C219 62.8001 224.5 60.6001 230.3 60.8001L246.1 61.2001C257 61.5001 265.9 70.0001 266.8 80.8001C267 83.8001 267.2 86.7001 267.4 89.7001C267.4 91.0001 267.4 92.2001 267.5 93.5001C267.8 94.7001 273.4 98.3001 272.2 102.1C271.7 103.2 271 104.1 270.1 104.8C268.1 106.7 268.3 108.6 268.4 111.1C268.4 113.8 268.4 116.5 268.3 119.2C268.2 121.9 268.5 126.3 266.7 128.5C262.2 134 251.1 132.9 248.8 132L254.9 176.2C254.8 176.2 214.8 192.6 208.4 164.8Z" fill="#93C9CC"/>
<path d="M249.8 86.7002C253 82.2002 257.6 81.9002 261.5 86.0002C257.6 86.3002 253.7 86.5002 249.8 86.7002Z" fill="#525155"/>
<path d="M250.2 86.9001C251.4 85.0001 253.3 83.8001 255.5 83.5001C257.7 83.6001 259.8 84.6001 261.2 86.3001L261.5 85.7001C257.6 85.9001 253.7 86.2001 249.8 86.4001C249.3 86.4001 249.3 87.2001 249.8 87.2001C253.7 87.0001 257.6 86.7001 261.5 86.5001C261.7 86.5001 261.9 86.3001 261.9 86.1001C261.9 86.0001 261.9 85.9001 261.8 85.9001C260.1 84.2001 257.9 82.8001 255.4 82.9001C253 83.2001 250.9 84.6001 249.5 86.6001C249.2 87.0001 249.9 87.3001 250.2 86.9001Z" fill="#525155"/>
<path d="M259 99.7L261.6 94.3C258.2 91.9 253.8 91.5 250 93.2C250.5 98.3 255 99.7 259 99.7Z" fill="white"/>
<path d="M261.6 94.3998C260.6 93.7998 259.6 93.2998 258.6 92.7998C257.2 92.9998 255.9 93.6998 255 94.7998C254.2 95.9998 253.9 97.3998 254 98.7998C255.6 99.4998 257.3 99.7998 258.9 99.6998L261.6 94.3998Z" fill="#525155"/>
<path d="M208.3 113.9C199.1 107.4 193.4 97.0002 194 85.6002C194.1 83.7002 194.2 78.1002 195.8 76.8002C197.4 75.5002 201.6 76.9002 203.8 75.9002C206.2 74.8002 205.3 71.9002 205.7 69.7002C206.3 66.2002 208.5 63.1002 211.7 61.4002C215.3 59.6002 219.3 60.0002 223.1 60.5002C226.5 60.8002 229.9 60.3002 233.1 59.0002C234.4 58.5002 239.7 57.1002 241 56.4002C244.1 54.7002 241 51.7002 243.4 49.6002C245.1 48.2002 247.8 47.9002 249.8 47.9002C254 47.7002 258.1 49.1002 261.3 51.7002C270.4 59.6002 265.7 71.3002 264.5 73.3002C264.5 73.3002 240.6 76.9002 239.2 77.5002C235.1 79.1002 234.8 84.6002 236.5 88.1002C237.2 89.5002 238.2 90.7002 238.9 92.0002C239.8 93.3002 240.2 94.8002 240 96.4002C239.4 100 235.4 98.6002 232.9 99.8002C230.1 101.2 227.6 103 225.5 105.2C223 107.7 220.8 110.6 217.9 112.8C215.3 115 211.4 116.1 208.3 113.9Z" fill="#525155"/>
<path opacity="0.26" d="M237.9 112.9C233.5 120 221.4 124.9 213 125.6L214.2 114.8C221.3 113.7 230.9 114.1 237.9 112.9Z" fill="#A7BBBC"/>
<path d="M214.4 96.8L220.7 59L233.7 58.5C233.7 58.5 231 95.5 230.9 95C230.8 94.5 214.4 96.8 214.4 96.8Z" fill="white"/>
<path opacity="0.46" d="M221.1 79.2002C219.8 79.2002 218.5 79.3002 217.3 79.5002L214.4 96.8002C214.4 96.8002 230.7 94.6002 230.8 95.0002C230.8 95.2002 231.3 89.8002 231.8 83.1002C228.8 80.7002 225 79.3002 221.1 79.2002Z" fill="#525155"/>
<path d="M250.2 142.5C241 140 235.4 133 230.8 124.6C236.3 128.1 242.5 130 248.7 132L250.2 142.5Z" fill="#34979D"/>
<path d="M224.6 118.7C234.32 118.7 242.2 110.82 242.2 101.1C242.2 91.3798 234.32 83.5 224.6 83.5C214.88 83.5 207 91.3798 207 101.1C207 110.82 214.88 118.7 224.6 118.7Z" fill="white"/>
<path d="M224.6 111.5C230.344 111.5 235 106.844 235 101.1C235 95.3564 230.344 90.7002 224.6 90.7002C218.856 90.7002 214.2 95.3564 214.2 101.1C214.2 106.844 218.856 111.5 224.6 111.5Z" fill="white" stroke="#93C9CC" stroke-miterlimit="10"/>
<path d="M237.9 112.9C246 115.1 254.3 117.9 262.3 120.1C265.3 120.9 268.4 121.7 271.4 121.2C274.4 120.7 277.4 118.4 277.7 115.3" stroke="#525155" stroke-miterlimit="10"/>
<path d="M277.9 115.8C279.557 115.8 280.9 114.457 280.9 112.8C280.9 111.143 279.557 109.8 277.9 109.8C276.243 109.8 274.9 111.143 274.9 112.8C274.9 114.457 276.243 115.8 277.9 115.8Z" stroke="#525155" stroke-miterlimit="10"/>
<path opacity="0.21" d="M249.1 117.2C253.187 117.2 256.5 113.887 256.5 109.8C256.5 105.713 253.187 102.4 249.1 102.4C245.013 102.4 241.7 105.713 241.7 109.8C241.7 113.887 245.013 117.2 249.1 117.2Z" fill="#34979D"/>
<path d="M415.9 52.8999H308.8V114.8V118.3V145.6L339.8 118.3H415.9V52.8999Z" fill="white" stroke="#FBD7AD" stroke-miterlimit="10"/>
<path d="M343.6 88.4998C346.141 88.4998 348.2 86.4403 348.2 83.8998C348.2 81.3593 346.141 79.2998 343.6 79.2998C341.059 79.2998 339 81.3593 339 83.8998C339 86.4403 341.059 88.4998 343.6 88.4998Z" fill="#E5F1F2"/>
<path d="M364 88.4998C366.54 88.4998 368.6 86.4403 368.6 83.8998C368.6 81.3593 366.54 79.2998 364 79.2998C361.459 79.2998 359.4 81.3593 359.4 83.8998C359.4 86.4403 361.459 88.4998 364 88.4998Z" fill="#E5F1F2"/>
<path d="M384.3 88.4998C386.841 88.4998 388.9 86.4403 388.9 83.8998C388.9 81.3593 386.841 79.2998 384.3 79.2998C381.76 79.2998 379.7 81.3593 379.7 83.8998C379.7 86.4403 381.76 88.4998 384.3 88.4998Z" fill="#E5F1F2"/>
<path d="M706.8 435.6L731.7 463.6L779.7 471" stroke="white" stroke-miterlimit="10"/>
<path d="M759.3 480.7L757.5 472.9" stroke="white" stroke-miterlimit="10"/>
<path d="M749 480.3L747.1 472.5" stroke="white" stroke-miterlimit="10"/>
<path d="M768.6 469.1L771.9 480.9" stroke="white" stroke-miterlimit="10"/>
<path opacity="0.3" d="M681.3 442.7L701 477.8L689.9 478.5L676.8 442.3L681.3 442.7Z" fill="#1B98A0"/>
<path d="M629.4 297.9L650.5 343.4L559.2 316.9L561.4 293.3" fill="#A7BBBC"/>
<path opacity="0.3" d="M557.8 455.2L592.1 460.2L589.7 448L556 447.1L557.8 455.2Z" fill="#1B98A0"/>
<path d="M640.7 330.4C631 325.6 545.9 285.7 545.9 285.7C545.3 285.4 544.7 285.1 544.1 284.8L543.9 284.7C532.1 279.8 505.4 282.7 508.4 301.6C513 330.3 553 445.8 553 445.8C554.6 449.5 590.3 448 590.3 448C590.3 448 589.6 436 587.7 418.4C601.6 424.6 617 428.1 631.6 424.4C692.3 408.6 666.3 343 640.7 330.4Z" fill="#A7BBBC"/>
<path d="M663.6 202.9C651.4 194.2 626.7 200.1 619.8 199.3C588.9 234.5 590.3 237.8 590.3 237.8C590.3 237.8 581.7 211.5 580.6 205.3C569.8 206.5 558.4 210.5 557.4 236.3C557.2 243.1 557.4 271.2 573.2 269.9L569.5 294.2C574.1 297.9 631.9 301.6 631.9 301.6L627.3 290.7L637.6 245.4L669.4 227.7C669.1 220.3 669.9 207.3 663.6 202.9Z" fill="#34979D"/>
<path d="M618.7 347.8C618.7 347.8 602.1 373.2 602 375.7C601.9 378.2 614.3 401.2 616.5 402.5C618.7 403.8 620.1 399.9 619.2 398.2L621.8 402C622.2 402.7 623.1 402.8 623.8 402.4C623.9 402.3 624 402.2 624.1 402.1C625.1 400.7 626.2 398.6 625 396.3C625 396.3 629.7 394.6 628.1 390.8C626.5 387 622.8 377.2 622.8 377.2C622.8 377.2 639.8 361.6 641.9 359.2C644 356.8 642.9 349.2 642.9 349.2" fill="#FBD7AD"/>
<path d="M619.2 398.2L609.1 379.4C608.8 378.9 608.8 378.3 609.1 377.8L611 374" stroke="#1B98A0" stroke-linecap="round" stroke-linejoin="round"/>
<path d="M624.9 396.3L615.2 379C614.9 378.4 614.9 377.7 615.3 377.1L618.5 372.3" stroke="#1B98A0" stroke-linecap="round" stroke-linejoin="round"/>
<path d="M601.9 376.8C600.4 385.1 598.2 393.2 595.4 401.1C596.3 402.1 597.7 402.2 598.8 401.4C599.7 400.6 600.4 399.6 600.8 398.4C603.4 392.5 605.6 386.4 607.3 380.3" fill="#FBD7AD"/>
<path d="M639.9 293.7L607.7 360.9H652.6L678.8 285.5L668.9 215.2L637.1 225.4L639.9 293.7Z" fill="#34979D"/>
<path d="M308.8 145.6L339.3 133H352.7V118.3H339.8L308.8 145.6Z" fill="#E5F1F2"/>
<path d="M587.7 418.4C587.7 418.4 590 363.7 569.4 336.6" stroke="#525155" stroke-miterlimit="10"/>
<path d="M561.4 293.3L617.3 340.8" stroke="#525155" stroke-miterlimit="10"/>
<path d="M560.7 245.5C556.1 253.1 558.5 263.1 566.1 267.7C568.2 269 570.7 269.8 573.2 270C572.2 277.4 571.7 286.8 570.7 294.2" stroke="#525155" stroke-miterlimit="10"/>
<path d="M637.7 245.5L636.2 223.3" stroke="#525155" stroke-miterlimit="10"/>
<path d="M107.3 103.4H195.1" stroke="#E5F1F2" stroke-miterlimit="10"/>
<path d="M263 226L253.4 157.9C253.4 157.9 204.3 145.7 203.1 147.1C201.9 148.5 175.4 226 175.4 226H263Z" fill="#E5F1F2"/>
<path d="M267.7 110.1H258.8C259.5 114 262.2 117.1 266.1 117.2L267.7 110.1Z" fill="white"/>
<path d="M252.1 154L228.6 147.8L211.4 143.2C207.7 142.2 203.2 140.3 199.4 140.1C191.1 139.6 182.9 146.3 177.8 152.3C171.8 159.1 168.2 167.6 167.4 176.6C166.9 181.8 167.8 187.1 170.1 191.8C172.5 196.4 177 200.1 182.1 200.9C188.9 201.9 195.5 197.7 199.4 192.1C203.3 186.5 204.9 179.7 206.3 173C206.7 170.8 207.2 168.6 208.6 166.8C212.1 162.3 219.7 165.4 224.3 165.6C233.5 166.1 245.3 167.7 254.2 164.4C254 164.3 252.8 156.6 252.1 154Z" fill="#E5F1F2"/>
<path opacity="0.85" d="M184.5 199.7C188.2 189.5 192.3 179.1 200.2 171.6C208.1 164.2 220.7 160.6 229.9 166.4C238.5 171.7 241.2 183 241.3 193.1C241.4 203.2 239.4 213.5 241.7 223.3" stroke="#1B98A0" stroke-miterlimit="10"/>
<path d="M253.4 316.6C253.7 316.6 253.9 316.4 253.9 316.1C253.9 315.8 253.7 315.6 253.4 315.6C253.1 315.6 252.9 315.8 252.9 316.1C252.9 316.4 253.1 316.6 253.4 316.6Z" fill="#93C9CC"/>
<path d="M201.1 255C206.1 240.9 222.6 233.5 237.4 235.1C252.2 236.7 265.3 245.7 276 256C286.7 266.3 295.9 278.3 307 288.2C318.1 298.1 332 306.1 346.9 306.1C362.6 306.1 377.4 297 387 284.5C396.6 272 401.5 256.6 404.3 241.2" stroke="#FBD7AD" stroke-miterlimit="10" stroke-dasharray="4 4"/>
<path d="M83.9 277.7C83.6 275.6 83 273.5 82.1 271.5C76.7 259.6 62.8 254.3 50.9 259.7C40.2 264.5 34.7 276.4 37.9 287.6C38.1 288.4 38.4 289.2 38.7 290C41.4 296.9 41.6 304.5 39.3 311.6C33.8 329.7 44 348.9 62.1 354.5C80.2 360.1 99.4 349.8 105 331.7C106.9 325.4 107 318.6 105.2 312.2C103.3 305.6 99.5 299.7 94.3 295.3C88.8 290.9 85.1 284.6 83.9 277.7Z" fill="#FBD7AD"/>
<path d="M132.3 375.8C132 393.5 117.4 407.7 99.6 407.4C82.3 407 68.3 393.1 68 375.8H132.3Z" fill="#34979D"/>
<path d="M147.351 448.575C148.219 422.523 127.802 400.7 101.75 399.833C75.6979 398.965 53.8752 419.382 53.0077 445.434C52.1402 471.486 72.5565 493.309 98.6087 494.176C124.661 495.044 146.484 474.627 147.351 448.575Z" fill="#34979D"/>
<path d="M70.2002 312.9L85.5002 375.8" stroke="#1B98A0" stroke-miterlimit="10"/>
<path d="M111.5 277.7C113.4 264.8 125.4 255.9 138.2 257.8C138.4 257.8 138.5 257.8 138.7 257.9C151.5 260.1 160.2 272.2 158.1 285.1C158 286 157.8 286.8 157.5 287.7C157.3 288.5 157 289.3 156.7 290.1C154 297 153.8 304.6 156.1 311.7C161.6 329.8 151.4 349 133.3 354.6C115.2 360.1 95.9999 349.9 90.3999 331.8C86.3999 318.7 90.5999 304.4 101.1 295.5C106.6 290.9 110.3 284.6 111.5 277.7Z" fill="white" stroke="#34979D" stroke-miterlimit="10"/>
<path d="M125.2 312.9L110 375.8" stroke="#34979D" stroke-miterlimit="10"/>
<path d="M128.6 502.9H71.7998L78.8998 489.1H120.5L128.6 502.9Z" fill="white" stroke="#34979D" stroke-miterlimit="10"/>
<path d="M83.1002 403C84.4002 403 117.2 403 117.2 403L70.2002 410.5C70.2002 410.5 77.1002 403.2 83.1002 403Z" fill="#A7BBBC"/>
<path opacity="0.55" d="M239.4 421.4L222.8 479.7H242.9L244.1 421.4H239.4Z" fill="#A7BBBC"/>
<path d="M375.2 425H242.9V501.4H375.2V425Z" fill="#FBD7AD"/>
<path opacity="0.37" d="M242.9 440.6L375.2 445.6V437.2H242.9V440.6Z" fill="#1B98A0"/>
<path d="M321.4 437.2C321.4 444.2 315.8 449.8 308.8 449.8C301.9 449.8 296.2 444.2 296.2 437.2" fill="white"/>
<path d="M378.1 421.4H239.4V437.2H378.1V421.4Z" fill="white" stroke="#E5F1F2" stroke-miterlimit="10"/>
<path d="M627.6 144.6C627.9 149.8 625.9 154 621 155.7C620.4 155.9 619.7 156.1 619.1 156.1C614.5 156.4 610.3 153.5 609 149.1C607.9 144.9 609.8 140.3 608.4 136.2C607.2 133 604.5 130.6 601.2 129.8C597.9 129.1 594.4 129.5 591.4 131C596.1 127.7 601.8 126 607.5 126.1C610.8 126.1 614.1 127 616.9 128.7C624.2 133.3 627.3 138.8 627.6 144.6Z" fill="#A4C6C8"/>
</g>
<defs>
<clipPath id="clip0_153_317">
<rect width="829" height="559.6" fill="white"/>
</clipPath>
</defs>
</svg>
