<svg width="338" height="332" viewBox="0 0 338 332" fill="none" xmlns="http://www.w3.org/2000/svg">
<path d="M26.4203 257.384L49.348 128.861H151.199L173.112 257.384H26.4203Z" fill="#34979D"/>
<path d="M76.5008 129.311C76.2191 116.481 86.4718 105.846 99.3158 105.621C112.16 105.34 122.807 115.581 123.032 128.411C123.032 128.692 123.032 129.03 123.032 129.255" stroke="#9AC2C5" stroke-width="3" stroke-miterlimit="10" stroke-linecap="round" stroke-linejoin="round"/>
<path d="M172.324 100.163C171.986 84.2944 184.661 71.1269 200.547 70.7893C216.433 70.4517 229.615 83.1127 229.953 98.9812C229.953 99.3188 229.953 99.7127 229.953 100.05" stroke="#9CD0D3" stroke-width="3" stroke-miterlimit="10" stroke-linecap="round" stroke-linejoin="round"/>
<path d="M123.257 186.82L76.5007 257.159H111.484L123.257 186.82Z" fill="#9AC2C5"/>
<path d="M110.357 259.073L138.749 99.9941H264.767L291.919 259.073H110.357Z" fill="#34979D"/>
<path d="M197.843 193.404L177.901 258.96H197.843" fill="#9CD0D3"/>
<path d="M205.11 42.0908C205.391 50.5315 198.237 57.7905 190.181 59.9851C182.069 62.1796 173.394 60.1539 165.62 56.9464C157.902 53.739 150.579 49.3498 142.749 46.4237C134.918 43.4976 125.961 42.2034 118.131 45.242C109.906 48.4495 103.991 56.2712 101.513 64.7681C99.034 73.2651 99.6536 82.381 101.344 90.9905" stroke="#88827B" stroke-width="2" stroke-miterlimit="10" stroke-dasharray="4 4"/>
<path d="M219.756 32.0744C221.277 31.7368 222.686 31.1178 224.038 30.2175C222.686 29.4297 221.277 28.8107 219.756 28.3605C218.235 27.9104 216.996 26.7849 216.545 25.1531C216.207 23.6338 215.588 22.227 214.686 20.8765C213.898 22.227 213.278 23.6338 212.827 25.1531C212.377 26.6724 211.25 27.9104 209.616 28.3605C208.095 28.6982 206.574 29.3171 205.279 30.2175C206.631 31.0053 208.039 31.6243 209.616 32.0744C211.137 32.5246 212.377 33.65 212.827 35.2819C213.165 36.8012 213.785 38.208 214.686 39.5585C215.475 38.208 216.095 36.8012 216.545 35.2819C217.052 33.65 218.179 32.4121 219.756 32.0744Z" fill="#34979D"/>
</svg>
