<?xml version="1.0" standalone="no"?>
<!DOCTYPE svg PUBLIC "-//W3C//DTD SVG 20010904//EN"
 "http://www.w3.org/TR/2001/REC-SVG-20010904/DTD/svg10.dtd">
<svg version="1.0" xmlns="http://www.w3.org/2000/svg"
 width="700.000000pt" height="700.000000pt" viewBox="0 0 700.000000 700.000000"
 preserveAspectRatio="xMidYMid meet">
<metadata>
Created by potrace 1.14, written by Peter Selinger 2001-2017
</metadata>
<g transform="translate(0.000000,700.000000) scale(0.100000,-0.100000)"
fill="#000000" stroke="none">
<path d="M3465 6727 c-27 -16 -63 -37 -80 -46 -16 -9 -41 -24 -55 -32 -14 -9
-141 -83 -282 -164 -142 -81 -258 -151 -258 -155 0 -3 19 -16 43 -28 23 -12
49 -26 57 -32 36 -24 362 -210 369 -210 4 0 13 -6 19 -12 7 -7 41 -29 76 -48
35 -19 102 -57 148 -84 45 -26 103 -60 128 -74 25 -14 99 -56 165 -95 66 -38
140 -81 165 -95 25 -14 81 -46 125 -72 44 -26 190 -111 325 -188 135 -77 250
-145 255 -149 7 -6 10 -377 10 -1096 0 -598 4 -1087 9 -1087 6 0 254 141 674
384 l52 30 0 1096 0 1095 -192 110 c-105 61 -197 111 -205 113 -7 2 -13 7 -13
12 0 5 -6 10 -13 12 -10 2 -251 138 -317 179 -39 23 -217 126 -230 132 -8 4
-31 17 -50 28 -19 12 -48 29 -65 38 -16 9 -41 24 -55 32 -14 9 -176 103 -360
209 -184 106 -348 200 -365 210 -30 17 -31 17 -80 -13z"/>
<path d="M2255 6023 c-176 -102 -340 -197 -365 -211 -25 -13 -70 -39 -100 -58
-30 -18 -143 -83 -250 -144 -107 -62 -224 -129 -260 -150 -36 -21 -153 -88
-260 -150 -107 -62 -225 -130 -262 -152 l-68 -40 0 -425 0 -425 33 20 c17 11
59 36 92 55 143 81 1425 822 1475 852 30 18 73 43 95 55 22 12 75 43 118 68
78 44 79 45 110 29 43 -22 124 -68 175 -101 23 -14 44 -26 46 -26 3 0 62 -34
131 -75 70 -41 128 -75 130 -75 2 0 50 -28 107 -61 104 -63 136 -81 218 -127
25 -14 62 -36 82 -49 21 -12 40 -23 42 -23 3 0 38 -19 78 -43 166 -99 248
-147 252 -147 2 0 60 -33 127 -73 68 -40 149 -87 179 -104 30 -17 89 -50 130
-75 41 -24 96 -56 121 -71 l47 -27 -2 426 -1 425 -105 61 c-58 33 -118 69
-135 79 -16 10 -37 22 -45 26 -8 3 -47 26 -87 50 -39 24 -74 43 -77 43 -3 0
-35 18 -73 41 -37 22 -75 45 -83 49 -8 5 -55 32 -105 61 -49 29 -103 60 -120
69 -16 10 -129 75 -250 145 -121 70 -238 137 -260 150 -22 12 -154 88 -293
169 -138 80 -255 146 -260 145 -4 0 -151 -84 -327 -186z"/>
<path d="M5609 5519 c-1 -8 -2 -498 -4 -1089 -1 -591 -3 -1080 -4 -1087 0 -6
-7 -13 -13 -15 -7 -2 -71 -37 -141 -78 -70 -41 -147 -86 -170 -99 -43 -25
-1032 -595 -1144 -660 -34 -20 -140 -81 -237 -136 -96 -55 -176 -103 -176
-107 0 -5 115 -73 455 -268 17 -9 84 -49 150 -87 l120 -70 30 18 c16 11 37 22
45 26 15 7 223 126 250 143 8 5 38 22 65 38 28 16 70 40 95 54 25 14 86 49
135 78 50 29 106 62 125 73 19 10 134 77 255 147 121 70 310 179 420 242 110
64 218 126 241 139 23 13 84 49 138 79 l96 55 0 1098 0 1099 -30 11 c-16 6
-30 15 -30 19 0 4 -4 8 -10 8 -5 0 -55 27 -111 60 -55 33 -102 60 -104 60 -1
0 -81 46 -176 101 -96 56 -190 110 -209 121 -19 11 -41 25 -47 30 -9 7 -13 6
-14 -3z"/>
<path d="M2556 5123 c-4 -5 -27 -19 -51 -33 -24 -14 -99 -56 -166 -95 -67 -38
-134 -77 -148 -85 -14 -9 -71 -41 -126 -73 -55 -32 -107 -62 -115 -67 -21 -14
-1143 -660 -1207 -696 l-53 -29 0 -1095 0 -1096 97 -56 c54 -31 213 -122 353
-203 140 -81 262 -151 270 -155 13 -7 15 116 15 1085 l-1 1093 61 35 c307 178
957 554 983 568 38 22 138 80 265 153 97 56 104 60 385 221 105 61 191 113
192 117 0 3 -111 70 -247 149 -137 78 -296 170 -356 205 -102 61 -135 73 -151
57z"/>
<path d="M2215 3833 c-71 -41 -143 -83 -160 -93 -16 -9 -118 -68 -225 -130
-107 -61 -197 -114 -200 -116 -7 -8 -7 -2157 1 -2179 4 -11 20 -27 35 -35 16
-8 61 -33 99 -56 39 -23 176 -102 305 -176 129 -75 291 -168 360 -208 69 -40
289 -167 490 -283 201 -115 382 -221 402 -233 21 -13 40 -24 42 -24 3 0 39
-20 80 -45 l74 -46 359 207 c197 113 362 210 366 214 6 5 -461 283 -648 386
-23 13 -527 304 -760 439 -88 51 -230 133 -315 182 l-155 89 -3 1092 c-1 601
-5 1092 -10 1091 -4 0 -65 -34 -137 -76z"/>
<path d="M2550 2267 l0 -425 138 -80 c246 -141 1374 -793 1497 -865 115 -67
146 -84 226 -129 l36 -20 239 138 c132 75 352 203 489 282 138 79 294 170 348
201 54 31 113 64 130 75 59 34 622 359 652 376 l30 17 3 427 c2 405 1 426 -15
416 -47 -29 -111 -65 -393 -228 -357 -205 -519 -299 -540 -312 -13 -8 -210
-121 -349 -201 -25 -15 -86 -50 -136 -79 -49 -29 -110 -64 -135 -78 -71 -40
-147 -84 -208 -120 -32 -18 -71 -40 -88 -49 l-32 -16 -138 81 c-77 44 -155 89
-174 99 -19 11 -165 96 -325 188 -159 93 -321 186 -360 208 -38 21 -90 52
-115 67 -25 15 -65 39 -90 53 -56 30 -613 352 -657 379 l-33 20 0 -425z"/>
</g>
</svg>
